<svg xmlns="http://www.w3.org/2000/svg" viewBox="0 0 240 120">
  <defs>
    <linearGradient id="grinLip" x1="0" x2="1" y1="0.2" y2="0.8">
      <stop offset="0%" stop-color="#f37c90" />
      <stop offset="50%" stop-color="#d8495f" />
      <stop offset="100%" stop-color="#af243f" />
    </linearGradient>
    <radialGradient id="grinShadow" cx="0.5" cy="0.65" r="0.6">
      <stop offset="0%" stop-color="#300915" />
      <stop offset="100%" stop-color="#0c0206" />
    </radialGradient>
    <linearGradient id="grinTeeth" x1="0" x2="0" y1="0" y2="1">
      <stop offset="0%" stop-color="#ffffff" />
      <stop offset="100%" stop-color="#edf4ff" />
    </linearGradient>
  </defs>
  <g fill="none" fill-rule="evenodd">
    <path
      d="M30 46c14 44 46 72 90 72s76-28 90-72"
      stroke="#3a0c1b"
      stroke-width="12"
      stroke-linecap="round"
      opacity="0.6"
    />
    <path
      d="M46 38c14 42 44 64 74 64s60-22 74-64c-18-14-52-24-74-24s-56 10-74 24z"
      fill="url(#grinLip)"
      stroke="#4d0f24"
      stroke-width="6"
      stroke-linejoin="round"
    />
    <path
      d="M60 58c14 20 40 32 60 32s46-12 60-32c-20-8-40-12-60-12s-40 4-60 12z"
      fill="url(#grinTeeth)"
    />
    <path
      d="M70 78c14 12 30 18 50 18s36-6 50-18"
      stroke="#e7f2ff"
      stroke-width="6"
      stroke-linecap="round"
      opacity="0.9"
    />
    <path
      d="M58 58c14 26 40 42 62 42s48-16 62-42c-20-8-40-12-62-12s-42 4-62 12z"
      fill="url(#grinShadow)"
      opacity="0.35"
    />
    <path
      d="M58 56c14 10 38 16 62 16s48-6 62-16"
      stroke="#821f3a"
      stroke-width="6"
      stroke-linecap="round"
      opacity="0.65"
    />
  </g>
</svg>
