<svg xmlns="http://www.w3.org/2000/svg" viewBox="0 0 240 120">
  <defs>
    <linearGradient id="shyLip" x1="0" x2="1" y1="0.2" y2="0.8">
      <stop offset="0%" stop-color="#f49fb6" />
      <stop offset="50%" stop-color="#e26e9a" />
      <stop offset="100%" stop-color="#c84673" />
    </linearGradient>
    <radialGradient id="shyShadow" cx="0.5" cy="0.7" r="0.6">
      <stop offset="0%" stop-color="#3f1122" />
      <stop offset="100%" stop-color="#1a050c" />
    </radialGradient>
  </defs>
  <g fill="none" fill-rule="evenodd">
    <path
      d="M56 68c16 18 36 28 64 28s48-10 64-28"
      stroke="#521629"
      stroke-width="8"
      stroke-linecap="round"
      opacity="0.4"
    />
    <path
      d="M70 60c12 18 32 28 50 28s38-10 50-28c-12-12-32-20-50-20s-38 8-50 20z"
      fill="url(#shyLip)"
      stroke="#7a1f3b"
      stroke-width="5"
      stroke-linejoin="round"
    />
    <path
      d="M76 64c10 10 26 16 44 16s34-6 44-16c-12-6-26-10-44-10s-32 4-44 10z"
      fill="#fff9fb"
      opacity="0.9"
    />
    <path
      d="M78 64c10 16 24 24 42 24s32-8 42-24c-12-6-26-8-42-8s-30 2-42 8z"
      fill="url(#shyShadow)"
      opacity="0.35"
    />
    <path
      d="M90 84c8 4 18 6 30 6s22-2 30-6"
      stroke="#fddae7"
      stroke-width="3"
      stroke-linecap="round"
      opacity="0.7"
    />
  </g>
</svg>
