<svg xmlns="http://www.w3.org/2000/svg" viewBox="0 0 240 120">
  <defs>
    <linearGradient id="lipColor" x1="0" x2="1" y1="0.2" y2="0.8">
      <stop offset="0%" stop-color="#ec6b8a" />
      <stop offset="45%" stop-color="#d44568" />
      <stop offset="100%" stop-color="#b12e54" />
    </linearGradient>
    <radialGradient id="innerMouth" cx="0.5" cy="0.5" r="0.7">
      <stop offset="0%" stop-color="#872642" />
      <stop offset="100%" stop-color="#4f0f22" />
    </radialGradient>
    <linearGradient id="teeth" x1="0" x2="0" y1="0" y2="1">
      <stop offset="0%" stop-color="#ffffff" />
      <stop offset="100%" stop-color="#f3f7ff" />
    </linearGradient>
  </defs>
  <g fill="none" fill-rule="evenodd">
    <path
      d="M38 52c12 34 46 56 82 56s70-22 82-56"
      stroke="#3d101f"
      stroke-width="10"
      stroke-linecap="round"
      opacity="0.65"
    />
    <path
      d="M52 44c12 32 38 48 68 48s56-16 68-48c-12-10-40-18-68-18s-56 8-68 18z"
      fill="url(#lipColor)"
      stroke="#520f24"
      stroke-width="6"
      stroke-linejoin="round"
    />
    <path
      d="M62 56c12 18 34 30 58 30s46-12 58-30c-16-4-38-8-58-8s-42 4-58 8z"
      fill="url(#innerMouth)"
    />
    <path
      d="M64 56c12 10 30 16 56 16s44-6 56-16c-16-4-36-6-56-6s-40 2-56 6z"
      fill="url(#teeth)"
      opacity="0.92"
    />
    <path
      d="M68 74c12 8 28 12 52 12s40-4 52-12"
      stroke="#fddde8"
      stroke-width="4"
      stroke-linecap="round"
      opacity="0.6"
    />
  </g>
</svg>
