<svg xmlns="http://www.w3.org/2000/svg" viewBox="0 0 260 160">
  <defs>
    <linearGradient id="handWarmBase" x1="0" x2="0" y1="0" y2="1">
      <stop offset="0%" stop-color="#ffcfa6" />
      <stop offset="60%" stop-color="#f8a069" />
      <stop offset="100%" stop-color="#e1783f" />
    </linearGradient>
    <linearGradient id="handWarmShadow" x1="0" x2="1" y1="0.2" y2="1">
      <stop offset="0%" stop-color="#f29a64" stop-opacity="0.2" />
      <stop offset="100%" stop-color="#c55322" stop-opacity="0.85" />
    </linearGradient>
  </defs>
  <g fill="none" fill-rule="evenodd">
    <path
      d="M36 46c-12 6-20 22-20 38 0 24 16 44 44 60h32c2-32-2-54-10-70-6-12-16-18-26-16 4-12 0-22-8-22-4 0-8 2-12 10z"
      fill="url(#handWarmBase)"
      stroke="#c75c27"
      stroke-width="5"
      stroke-linejoin="round"
    />
    <path
      d="M224 46c12 6 20 22 20 38 0 24-16 44-44 60h-32c-2-32 2-54 10-70 6-12 16-18 26-16-4-12 0-22 8-22 4 0 8 2 12 10z"
      fill="url(#handWarmBase)"
      stroke="#c75c27"
      stroke-width="5"
      stroke-linejoin="round"
    />
    <path
      d="M36 46c-10 8-16 22-16 36 0 22 14 40 38 54h24c2-28-2-48-10-62-6-10-14-14-20-12 4-12 2-22-6-22-4 0-8 2-10 6z"
      fill="url(#handWarmShadow)"
      opacity="0.6"
    />
    <path
      d="M224 46c10 8 16 22 16 36 0 22-14 40-38 54h-24c-2-28 2-48 10-62 6-10 14-14 20-12-4-12-2-22 6-22 4 0 8 2 10 6z"
      fill="url(#handWarmShadow)"
      opacity="0.6"
    />
    <path
      d="M96 120c12 20 32 32 34 32s22-12 34-32"
      stroke="#c75c27"
      stroke-width="8"
      stroke-linecap="round"
      opacity="0.45"
    />
    <path
      d="M104 128c8 10 18 18 26 18s18-8 26-18"
      stroke="#f3b580"
      stroke-width="6"
      stroke-linecap="round"
      opacity="0.7"
    />
  </g>
</svg>
