<svg xmlns="http://www.w3.org/2000/svg" viewBox="0 0 240 240">
  <defs>
    <linearGradient id="skinWarmBase" x1="0" x2="0" y1="0" y2="1">
      <stop offset="0%" stop-color="#ffdbb9" />
      <stop offset="60%" stop-color="#fbb07e" />
      <stop offset="100%" stop-color="#f29b62" />
    </linearGradient>
    <radialGradient id="skinWarmGlow" cx="0.4" cy="0.32" r="0.62">
      <stop offset="0%" stop-color="#fff2e5" stop-opacity="0.45" />
      <stop offset="100%" stop-color="#fff2e5" stop-opacity="0" />
    </radialGradient>
    <linearGradient id="skinWarmShadow" x1="0" x2="1" y1="0.25" y2="0.85">
      <stop offset="0%" stop-color="#ee8e51" stop-opacity="0" />
      <stop offset="70%" stop-color="#d86a37" stop-opacity="0.6" />
      <stop offset="100%" stop-color="#c45a2c" stop-opacity="0.8" />
    </linearGradient>
  </defs>
  <g fill="none" fill-rule="evenodd">
    <path
      d="M120 28c-49 0-86 44-86 104 0 62 40 112 86 112s86-50 86-112C206 72 169 28 120 28z"
      fill="url(#skinWarmBase)"
      stroke="#b85a2f"
      stroke-width="4"
      stroke-linecap="round"
      stroke-linejoin="round"
    />
    <path
      d="M120 38c-42 0-72 37-72 90 0 50 32 96 72 96s72-46 72-96c0-53-30-90-72-90z"
      fill="url(#skinWarmGlow)"
    />
    <path
      d="M44 130c0 20 8 40 20 54-8 0-19-8-26-24-5-10-8-22-8-34 0-18 8-34 20-44 8-5 16 4 12 10-4 10-6 24-6 38z"
      fill="#f2a56b"
      opacity="0.5"
    />
    <path
      d="M196 130c0 20-8 40-20 54 8 0 19-8 26-24 5-10 8-22 8-34 0-18-8-34-20-44-8-5-16 4-12 10 4 10 6 24 6 38z"
      fill="#f2a56b"
      opacity="0.5"
    />
    <path
      d="M120 176c-24 0-44 14-50 34 14 12 32 20 50 20s36-8 50-20c-6-20-26-34-50-34z"
      fill="#e6844b"
      opacity="0.45"
    />
    <path
      d="M120 210c-18 0-34-6-46-16 8-18 27-30 46-30s38 12 46 30c-12 10-28 16-46 16z"
      fill="#f09c67"
    />
    <path
      d="M80 122c8 10 20 16 40 16s32-6 40-16"
      stroke="#cf6231"
      stroke-linecap="round"
      stroke-width="6"
      opacity="0.28"
    />
    <path
      d="M120 70c-18 0-32 6-40 16-4 6-14 4-14-4 0-22 24-40 54-40s54 18 54 40c0 8-10 10-14 4-8-10-22-16-40-16z"
      fill="#f6bc88"
    />
    <path
      d="M120 28c-28 0-52 14-68 36 12-6 24-10 38-10 24 0 44 10 52 24 8-14 28-24 52-24 14 0 26 4 38 10-16-22-40-36-68-36z"
      fill="#f2a96f"
      opacity="0.45"
    />
    <path
      d="M120 28c-40 0-70 22-70 22l16 22c14-10 34-16 54-16s40 6 54 16l16-22s-30-22-70-22z"
      fill="#f9c79a"
      opacity="0.35"
    />
    <path
      d="M84 150c8 6 20 10 36 10s28-4 36-10"
      stroke="url(#skinWarmShadow)"
      stroke-width="8"
      stroke-linecap="round"
      opacity="0.7"
    />
  </g>
</svg>
