<svg xmlns="http://www.w3.org/2000/svg" viewBox="0 0 240 240">
  <defs>
    <linearGradient id="skinLightBase" x1="0" x2="0" y1="0" y2="1">
      <stop offset="0%" stop-color="#ffe9d6" />
      <stop offset="60%" stop-color="#ffd6b5" />
      <stop offset="100%" stop-color="#ffc8a4" />
    </linearGradient>
    <radialGradient id="skinLightGlow" cx="0.35" cy="0.3" r="0.6">
      <stop offset="0%" stop-color="#ffffff" stop-opacity="0.45" />
      <stop offset="100%" stop-color="#ffffff" stop-opacity="0" />
    </radialGradient>
    <linearGradient id="skinLightShadow" x1="0" x2="1" y1="0.2" y2="0.9">
      <stop offset="0%" stop-color="#fbbd92" stop-opacity="0.0" />
      <stop offset="70%" stop-color="#f7a773" stop-opacity="0.6" />
      <stop offset="100%" stop-color="#f1905e" stop-opacity="0.8" />
    </linearGradient>
  </defs>
  <g fill="none" fill-rule="evenodd">
    <path
      d="M120 28c-49 0-86 44-86 104 0 62 40 112 86 112s86-50 86-112C206 72 169 28 120 28z"
      fill="url(#skinLightBase)"
      stroke="#e7996f"
      stroke-width="4"
      stroke-linecap="round"
      stroke-linejoin="round"
    />
    <path
      d="M120 36c-42 0-72 39-72 90 0 50 32 96 72 96s72-46 72-96c0-51-30-90-72-90z"
      fill="url(#skinLightGlow)"
    />
    <path
      d="M47 128c0 20 7 38 18 52-7 0-17-8-24-24-4-9-6-20-6-30 0-18 7-32 18-42 6-4 13 4 10 10-4 8-6 20-6 34z"
      fill="#f5b388"
      opacity="0.45"
    />
    <path
      d="M193 128c0 20-7 38-18 52 7 0 17-8 24-24 4-9 6-20 6-30 0-18-7-32-18-42-6-4-13 4-10 10 4 8 6 20 6 34z"
      fill="#f5b388"
      opacity="0.45"
    />
    <path
      d="M120 176c-24 0-44 14-50 34 14 12 32 20 50 20s36-8 50-20c-6-20-26-34-50-34z"
      fill="#f4a678"
      opacity="0.45"
    />
    <path
      d="M120 210c-18 0-34-6-46-16 8-18 27-30 46-30s38 12 46 30c-12 10-28 16-46 16z"
      fill="#f7b88e"
    />
    <path
      d="M80 120c8 10 20 16 40 16s32-6 40-16"
      stroke="#f1915f"
      stroke-linecap="round"
      stroke-width="6"
      opacity="0.25"
    />
    <path
      d="M120 72c-16 0-30 6-38 16-4 6-12 4-12-4 0-22 22-40 50-40s50 18 50 40c0 8-8 10-12 4-8-10-22-16-38-16z"
      fill="#fbd7b5"
    />
    <path
      d="M120 28c-28 0-52 14-68 36 10-6 22-10 36-10 24 0 44 10 52 26 8-16 28-26 52-26 14 0 26 4 36 10-16-22-40-36-68-36z"
      fill="#f9c49d"
      opacity="0.4"
    />
    <path
      d="M120 28c-40 0-70 22-70 22l14 20c14-10 34-16 56-16s42 6 56 16l14-20s-30-22-70-22z"
      fill="#fce0c3"
      opacity="0.35"
    />
    <path
      d="M84 150c8 6 20 10 36 10s28-4 36-10"
      stroke="url(#skinLightShadow)"
      stroke-width="8"
      stroke-linecap="round"
      opacity="0.7"
    />
  </g>
</svg>
