<svg xmlns="http://www.w3.org/2000/svg" viewBox="0 0 240 240">
  <defs>
    <linearGradient id="skinDarkBase" x1="0" x2="0" y1="0" y2="1">
      <stop offset="0%" stop-color="#68412b" />
      <stop offset="55%" stop-color="#4f2a18" />
      <stop offset="100%" stop-color="#3d1c0f" />
    </linearGradient>
    <radialGradient id="skinDarkGlow" cx="0.45" cy="0.3" r="0.65">
      <stop offset="0%" stop-color="#a0653f" stop-opacity="0.35" />
      <stop offset="100%" stop-color="#a0653f" stop-opacity="0" />
    </radialGradient>
    <linearGradient id="skinDarkShadow" x1="0" x2="1" y1="0.2" y2="0.9">
      <stop offset="0%" stop-color="#2d1208" stop-opacity="0" />
      <stop offset="70%" stop-color="#1a0804" stop-opacity="0.6" />
      <stop offset="100%" stop-color="#0b0301" stop-opacity="0.8" />
    </linearGradient>
  </defs>
  <g fill="none" fill-rule="evenodd">
    <path
      d="M120 28c-49 0-86 44-86 104 0 62 40 112 86 112s86-50 86-112C206 72 169 28 120 28z"
      fill="url(#skinDarkBase)"
      stroke="#31150b"
      stroke-width="4"
      stroke-linecap="round"
      stroke-linejoin="round"
    />
    <path
      d="M120 38c-42 0-72 37-72 90 0 50 32 96 72 96s72-46 72-96c0-53-30-90-72-90z"
      fill="url(#skinDarkGlow)"
    />
    <path
      d="M44 134c0 20 8 38 20 52-8 0-18-8-24-22-6-10-10-24-10-38 0-18 8-34 22-44 8-4 16 4 12 10-4 10-8 24-8 42z"
      fill="#4a2617"
      opacity="0.6"
    />
    <path
      d="M196 134c0 20-8 38-20 52 8 0 18-8 24-22 6-10 10-24 10-38 0-18-8-34-22-44-8-4-16 4-12 10 4 10 8 24 8 42z"
      fill="#4a2617"
      opacity="0.6"
    />
    <path
      d="M120 176c-24 0-44 14-50 34 14 12 32 20 50 20s36-8 50-20c-6-20-26-34-50-34z"
      fill="#3d1f12"
      opacity="0.5"
    />
    <path
      d="M120 210c-18 0-34-6-46-16 8-18 27-30 46-30s38 12 46 30c-12 10-28 16-46 16z"
      fill="#4d2817"
    />
    <path
      d="M82 122c8 10 20 16 38 16s30-6 38-16"
      stroke="#1f0c05"
      stroke-linecap="round"
      stroke-width="6"
      opacity="0.28"
    />
    <path
      d="M120 70c-18 0-34 6-42 16-6 6-16 4-16-4 0-22 24-40 58-40s58 18 58 40c0 8-10 10-16 4-8-10-24-16-42-16z"
      fill="#7a4a2b"
      opacity="0.75"
    />
    <path
      d="M120 28c-28 0-52 14-68 36 12-6 26-10 40-10 24 0 46 10 54 24 8-14 30-24 54-24 14 0 28 4 40 10-16-22-40-36-68-36z"
      fill="#5c331c"
      opacity="0.45"
    />
    <path
      d="M120 28c-40 0-70 22-70 22l18 22c14-10 34-16 52-16s38 6 52 16l18-22s-30-22-70-22z"
      fill="#815030"
      opacity="0.32"
    />
    <path
      d="M84 150c8 6 20 10 36 10s28-4 36-10"
      stroke="url(#skinDarkShadow)"
      stroke-width="8"
      stroke-linecap="round"
      opacity="0.7"
    />
  </g>
</svg>
