<svg xmlns="http://www.w3.org/2000/svg" viewBox="0 0 200 200">
  <defs>
    <radialGradient id="afroTexture" cx="100" cy="60" r="90" gradientUnits="userSpaceOnUse">
      <stop offset="0" stop-color="#3d2b24" />
      <stop offset="1" stop-color="#1f130f" />
    </radialGradient>
  </defs>
  <path d="M100 16c-40 0-76 30-80 74-3 34 16 52 36 58 4.8 1.4 9.5-2 9.5-6.9 0-6.1-4.7-10.2-4.7-16.1 0-10.2 10.2-20 20.4-20 18.1 0 18.1 12.7 18.1 18.1 0 7.2-4.6 13.2-4.6 20.5C94.7 149 101 156 111 156h10c20 0 46-16 55-42 13-38-14-98-76-98z" fill="url(#afroTexture)" />
  <path d="M68 66c18-14 46-20 70-10" fill="none" stroke="#51372e" stroke-width="12" stroke-linecap="round" opacity="0.4" />
  <path d="M46 98c12-24 40-36 72-30" fill="none" stroke="#51372e" stroke-width="10" stroke-linecap="round" opacity="0.3" />
</svg>
