<svg xmlns="http://www.w3.org/2000/svg" viewBox="0 0 240 220">
  <defs>
    <radialGradient id="afroBase" cx="0.5" cy="0.35" r="0.7">
      <stop offset="0%" stop-color="#3a2f40" />
      <stop offset="50%" stop-color="#211a26" />
      <stop offset="100%" stop-color="#0d090f" />
    </radialGradient>
    <radialGradient id="afroHighlight" cx="0.35" cy="0.3" r="0.45">
      <stop offset="0%" stop-color="#6a5672" stop-opacity="0.7" />
      <stop offset="100%" stop-color="#6a5672" stop-opacity="0" />
    </radialGradient>
    <radialGradient id="afroLowlight" cx="0.5" cy="0.8" r="0.5">
      <stop offset="0%" stop-color="#1a131d" />
      <stop offset="100%" stop-color="#050305" />
    </radialGradient>
  </defs>
  <g fill="none" fill-rule="evenodd">
    <path
      d="M120 6C70 6 26 44 18 94c-6 38 10 72 38 96 8-20 22-34 36-40-2-22 4-44 16-60 14-18 34-28 52-28s38 10 52 28c12 16 18 38 16 60 14 6 28 20 36 40 28-24 44-58 38-96C214 44 170 6 120 6z"
      fill="url(#afroBase)"
      stroke="#0d090f"
      stroke-width="6"
      stroke-linejoin="round"
    />
    <path
      d="M120 16c-44 0-80 30-86 72-4 26 4 50 20 70 10-18 24-30 38-34-4-20 0-40 12-54 12-14 28-22 44-22s32 8 44 22c12 14 16 34 12 54 14 4 28 16 38 34 16-20 24-44 20-70-6-42-42-72-86-72z"
      fill="url(#afroHighlight)"
    />
    <path
      d="M120 120c-22 0-40 10-54 24-10 10-18 24-26 40 10 8 22 14 34 18 8-16 16-28 24-36 10-10 20-16 22-16s12 6 22 16c8 8 16 20 24 36 12-4 24-10 34-18-8-16-16-30-26-40-14-14-32-24-54-24z"
      fill="url(#afroLowlight)"
      opacity="0.6"
    />
    <g fill="#5a4a63" opacity="0.35">
      <path d="M52 86c8-22 28-38 52-44-12 18-18 38-16 60-14 2-26 10-36 24-6-16-6-28 0-40z" />
      <path d="M188 86c-8-22-28-38-52-44 12 18 18 38 16 60 14 2 26 10 36 24 6-16 6-28 0-40z" />
    </g>
  </g>
</svg>
