<svg xmlns="http://www.w3.org/2000/svg" viewBox="0 0 240 200">
  <defs>
    <radialGradient id="curlBase" cx="0.5" cy="0.35" r="0.65">
      <stop offset="0%" stop-color="#4d2a4f" />
      <stop offset="50%" stop-color="#2d1634" />
      <stop offset="100%" stop-color="#16071a" />
    </radialGradient>
    <radialGradient id="curlHighlight" cx="0.4" cy="0.3" r="0.4">
      <stop offset="0%" stop-color="#8150a1" stop-opacity="0.65" />
      <stop offset="100%" stop-color="#8150a1" stop-opacity="0" />
    </radialGradient>
  </defs>
  <g fill="none" fill-rule="evenodd">
    <path
      d="M120 12C78 12 40 34 24 76c-12 30-8 62 8 88 12-18 28-30 44-34-4-22 2-42 16-54 16-14 36-18 56-18s40 4 56 18c14 12 20 32 16 54 16 4 32 16 44 34 16-26 20-58 8-88C200 34 162 12 120 12z"
      fill="url(#curlBase)"
      stroke="#16071a"
      stroke-width="6"
      stroke-linejoin="round"
    />
    <path
      d="M120 20c-36 0-70 16-82 50-8 24-2 46 10 60 8-16 20-26 34-30-2-18 4-32 14-42 12-10 28-14 44-14s32 4 44 14c10 10 16 24 14 42 14 4 26 14 34 30 12-14 18-36 10-60-12-34-46-50-82-50z"
      fill="url(#curlHighlight)"
    />
    <g fill="#40244a" opacity="0.5">
      <path d="M40 96c8-14 24-24 40-28-8 18-12 38-8 56-12 0-24 6-34 20-10-18-10-34 2-48z" />
      <path d="M200 96c-8-14-24-24-40-28 8 18 12 38 8 56 12 0 24 6 34 20 10-18 10-34-2-48z" />
    </g>
  </g>
</svg>
