<svg xmlns="http://www.w3.org/2000/svg" viewBox="0 0 200 200">
  <defs>
    <linearGradient id="longBrown" x1="0" y1="0" x2="0" y2="1">
      <stop offset="0" stop-color="#8a4c2e" />
      <stop offset="1" stop-color="#3b1e12" />
    </linearGradient>
    <linearGradient id="longHighlight" x1="0" y1="0" x2="0" y2="1">
      <stop offset="0" stop-color="#c78254" />
      <stop offset="1" stop-color="#6e371d" />
    </linearGradient>
  </defs>
  <path d="M60 38c-24 14-34 46-34 98 0 18 6 36 18 46 20 16 50 0 56-32 1-6-2-24 0-30 2-8 10-14 20-14s18 6 20 14c2 6-1 24 0 30 6 32 36 48 56 32 12-10 18-28 18-46 0-52-10-84-34-98-34-20-84-20-118 0z" fill="url(#longBrown)" />
  <path d="M56 64c14-16 34-24 44-24s30 8 44 24" fill="none" stroke="url(#longHighlight)" stroke-width="14" stroke-linecap="round" opacity="0.6" />
  <path d="M52 116c12-14 32-22 48-22s36 8 48 22" fill="none" stroke="url(#longHighlight)" stroke-width="12" stroke-linecap="round" opacity="0.4" />
</svg>
