<svg xmlns="http://www.w3.org/2000/svg" viewBox="0 0 240 220">
  <defs>
    <linearGradient id="brownBase" x1="0" x2="1" y1="0" y2="1">
      <stop offset="0%" stop-color="#7b3f18" />
      <stop offset="50%" stop-color="#4f220c" />
      <stop offset="100%" stop-color="#2f1305" />
    </linearGradient>
    <linearGradient id="brownHighlight" x1="0.2" x2="0.8" y1="0" y2="1">
      <stop offset="0%" stop-color="#c97a3a" stop-opacity="0.8" />
      <stop offset="40%" stop-color="#a55a24" stop-opacity="0.4" />
      <stop offset="100%" stop-color="#6b320f" stop-opacity="0" />
    </linearGradient>
    <radialGradient id="brownShadow" cx="0.5" cy="0.7" r="0.6">
      <stop offset="0%" stop-color="#1a0904" />
      <stop offset="100%" stop-color="#050201" />
    </radialGradient>
  </defs>
  <g fill="none" fill-rule="evenodd">
    <path
      d="M120 14c-42 0-84 30-96 76-10 38 0 84 24 118 12-22 24-40 40-52-6-24-4-52 10-74 14-22 34-36 52-36s38 14 52 36c14 22 16 50 10 74 16 12 28 30 40 52 24-34 34-80 24-118-12-46-54-76-96-76z"
      fill="url(#brownBase)"
      stroke="#2a1406"
      stroke-width="6"
      stroke-linejoin="round"
    />
    <path
      d="M120 24c-36 0-72 24-82 64-8 28 0 64 14 88 10-18 22-34 36-44-4-26 0-48 12-66 10-16 26-26 40-26s30 10 40 26c12 18 16 40 12 66 14 10 26 26 36 44 14-24 22-60 14-88-10-40-46-64-82-64z"
      fill="url(#brownHighlight)"
    />
    <path
      d="M120 110c-24 0-42 12-56 26-12 12-22 28-30 44 8 10 18 18 30 24 8-16 16-30 26-40 12-12 24-18 30-18s18 6 30 18c10 10 18 24 26 40 12-6 22-14 30-24-8-16-18-32-30-44-14-14-32-26-56-26z"
      fill="url(#brownShadow)"
      opacity="0.5"
    />
    <path
      d="M60 80c10-22 26-38 48-42-12 18-18 40-16 64-12 2-22 8-30 18-8-16-10-30-2-40z"
      fill="#9b5825"
      opacity="0.45"
    />
    <path
      d="M180 80c-10-22-26-38-48-42 12 18 18 40 16 64 12 2 22 8 30 18 8-16 10-30 2-40z"
      fill="#9b5825"
      opacity="0.45"
    />
  </g>
</svg>
