<svg xmlns="http://www.w3.org/2000/svg" viewBox="0 0 200 200">
  <defs>
    <linearGradient id="blondeBase" x1="0" y1="0" x2="0" y2="1">
      <stop offset="0" stop-color="#ffeaa6" />
      <stop offset="1" stop-color="#e0a833" />
    </linearGradient>
  </defs>
  <g stroke-linecap="round" stroke-linejoin="round">
    <path d="M38 86c2-44 32-70 62-70s60 26 62 70v52c-12-12-26-18-38-16-11 2-21 10-26 20-5-10-15-18-26-20-12-2-26 4-38 16z" fill="url(#blondeBase)" stroke="#c48a1f" stroke-width="6" />
    <path d="M60 70c16-14 28-22 40-22s24 8 40 22" fill="none" stroke="#fff3c9" stroke-width="8" opacity="0.6" />
    <path d="M54 112c14-14 34-18 46-18s32 4 46 18" fill="none" stroke="#fff3c9" stroke-width="6" opacity="0.45" />
  </g>
</svg>
