<svg xmlns="http://www.w3.org/2000/svg" viewBox="0 0 240 180">
  <defs>
    <linearGradient id="blondeBase" x1="0" x2="1" y1="0.1" y2="0.9">
      <stop offset="0%" stop-color="#ffe8a3" />
      <stop offset="45%" stop-color="#f9c85d" />
      <stop offset="100%" stop-color="#d9912f" />
    </linearGradient>
    <linearGradient id="blondeShadow" x1="0.3" x2="0.7" y1="0" y2="1">
      <stop offset="0%" stop-color="#b87324" stop-opacity="0.6" />
      <stop offset="100%" stop-color="#7b4a16" stop-opacity="0.8" />
    </linearGradient>
    <radialGradient id="blondeHighlight" cx="0.3" cy="0.2" r="0.5">
      <stop offset="0%" stop-color="#fff4c9" stop-opacity="0.9" />
      <stop offset="100%" stop-color="#fff4c9" stop-opacity="0" />
    </radialGradient>
  </defs>
  <g fill="none" fill-rule="evenodd">
    <path
      d="M120 16c-38 0-72 20-86 54-10 26-10 52-2 76 18-20 36-30 54-32-2-16 0-34 8-46 10-16 26-24 44-24s34 8 44 24c8 12 10 30 8 46 18 2 36 12 54 32 8-24 8-50-2-76-14-34-48-54-86-54z"
      fill="url(#blondeBase)"
      stroke="#7b4a16"
      stroke-width="6"
      stroke-linejoin="round"
    />
    <path
      d="M120 22c-34 0-62 16-72 42-6 16-6 32-2 46 12-12 26-20 40-22-2-16 0-28 8-38 8-10 18-16 26-16s18 6 26 16c8 10 10 22 8 38 14 2 28 10 40 22 4-14 4-30-2-46-10-26-38-42-72-42z"
      fill="url(#blondeHighlight)"
    />
    <path
      d="M120 22c-24 0-46 10-60 26 20-8 42-12 60-12s40 4 60 12c-14-16-36-26-60-26z"
      fill="#fff4c9"
      opacity="0.6"
    />
    <path
      d="M52 92c10-18 24-28 42-32-6 14-8 32-4 48-14 0-26 6-40 20-6-14-6-26 2-36z"
      fill="#f7c86b"
      opacity="0.6"
    />
    <path
      d="M188 92c-10-18-24-28-42-32 6 14 8 32 4 48 14 0 26 6 40 20 6-14 6-26-2-36z"
      fill="#f7c86b"
      opacity="0.6"
    />
    <path
      d="M52 92c-8 14-8 28-2 42 12-12 24-18 36-18 4-14 6-30 2-44-12 4-24 10-36 20z"
      fill="url(#blondeShadow)"
      opacity="0.4"
    />
    <path
      d="M188 92c8 14 8 28 2 42-12-12-24-18-36-18-4-14-6-30-2-44 12 4 24 10 36 20z"
      fill="url(#blondeShadow)"
      opacity="0.4"
    />
  </g>
</svg>
