<svg xmlns="http://www.w3.org/2000/svg" viewBox="0 0 200 200">
  <defs>
    <linearGradient id="blondeBase" x1="0" y1="0" x2="0" y2="1">
      <stop offset="0" stop-color="#ffe98a" />
      <stop offset="1" stop-color="#d79a1d" />
    </linearGradient>
    <linearGradient id="blondeHighlight" x1="0" y1="0" x2="1" y2="1">
      <stop offset="0" stop-color="#fff6c3" />
      <stop offset="1" stop-color="#f5c354" />
    </linearGradient>
  </defs>
  <path d="M48 92c8-36 38-62 82-62 36 0 58 22 58 48 0 24-12 40-32 44-6.4 1.3-12-4.3-12-10.8 0-8 4.5-15.2 4.5-24.5 0-13.3-10.7-24-36.5-24s-44.5 16.7-44.5 34c0 8 4.5 12 4.5 20 0 5-4.5 9-9.5 8-14-2.7-20.5-18.5-14-32.7z" fill="url(#blondeBase)" />
  <path d="M60 70c14-14 32-22 48-22s34 8 48 22" fill="none" stroke="url(#blondeHighlight)" stroke-width="12" stroke-linecap="round" opacity="0.8" />
  <path d="M54 102c10-10 28-18 46-18s36 8 46 18" fill="none" stroke="url(#blondeHighlight)" stroke-width="10" stroke-linecap="round" opacity="0.6" />
</svg>
