<svg xmlns="http://www.w3.org/2000/svg" viewBox="0 0 260 360">
  <defs>
    <linearGradient id="girlSkin" x1="0" x2="0" y1="0" y2="1">
      <stop offset="0%" stop-color="#fbdcc8" />
      <stop offset="55%" stop-color="#f5b79a" />
      <stop offset="100%" stop-color="#eb9c7d" />
    </linearGradient>
    <linearGradient id="girlSkinShade" x1="0.2" y1="0" x2="0.8" y2="1">
      <stop offset="0%" stop-color="#d6815d" stop-opacity="0.25" />
      <stop offset="100%" stop-color="#b05a3f" stop-opacity="0.6" />
    </linearGradient>
    <linearGradient id="girlLegs" x1="0" x2="0" y1="0" y2="1">
      <stop offset="0%" stop-color="#f7c3ab" />
      <stop offset="100%" stop-color="#e5a38b" />
    </linearGradient>
    <radialGradient id="girlHighlight" cx="0.3" cy="0.2" r="0.8">
      <stop offset="0%" stop-color="#fff8f2" stop-opacity="0.9" />
      <stop offset="100%" stop-color="#fff8f2" stop-opacity="0" />
    </radialGradient>
  </defs>
  <g fill="none" fill-rule="evenodd">
    <!-- cuello -->
    <path
      d="M110 84c0 18-2 34-2 48 0 18 12 32 22 32s22-14 22-32c0-14-2-30-2-48z"
      fill="url(#girlSkin)"
      stroke="#bf7050"
      stroke-width="4"
      stroke-linejoin="round"
    />
    <!-- brazos curvos -->
    <path
      d="M52 126c-20 10-32 34-32 60 0 36 20 64 44 64 20 0 32-22 26-46l-14-70z"
      fill="url(#girlSkin)"
      stroke="#bf7050"
      stroke-width="5"
      stroke-linecap="round"
      stroke-linejoin="round"
    />
    <path
      d="M208 126c20 10 32 34 32 60 0 36-20 64-44 64-20 0-32-22-26-46l14-70z"
      fill="url(#girlSkin)"
      stroke="#bf7050"
      stroke-width="5"
      stroke-linecap="round"
      stroke-linejoin="round"
    />
    <path
      d="M58 136c-12 8-20 28-20 46 0 28 14 52 32 52 14 0 22-18 18-34z"
      fill="url(#girlSkinShade)"
      opacity="0.55"
    />
    <path
      d="M202 136c12 8 20 28 20 46 0 28-14 52-32 52-14 0-22-18-18-34z"
      fill="url(#girlSkinShade)"
      opacity="0.55"
    />
    <!-- torso con cintura -->
    <path
      d="M82 128c-12 48-20 86-20 120 0 52 26 88 68 88s68-36 68-88c0-34-8-72-20-120z"
      fill="url(#girlSkin)"
      stroke="#bf7050"
      stroke-width="5"
      stroke-linejoin="round"
    />
    <path
      d="M94 132c-8 42-16 78-16 114 0 44 22 74 52 74s52-30 52-74c0-36-8-72-16-114z"
      fill="url(#girlSkinShade)"
      opacity="0.45"
    />
    <path
      d="M94 142c12 14 28 22 36 22s24-8 36-22"
      stroke="#bf7050"
      stroke-width="6"
      stroke-linecap="round"
      opacity="0.28"
    />
    <path
      d="M108 158c10 8 22 12 28 12s18-4 28-12"
      stroke="#ffe7d6"
      stroke-width="4"
      stroke-linecap="round"
      opacity="0.65"
    />
    <!-- piernas con postura -->
    <path
      d="M106 286c-12 42-18 78-18 110h28l12-78 12 78h28c0-32-6-68-18-110z"
      fill="url(#girlLegs)"
      stroke="#bf7050"
      stroke-width="5"
      stroke-linejoin="round"
    />
    <path
      d="M110 290c-10 36-16 66-16 100h12l12-64 12 64h12c0-34-6-64-16-100z"
      fill="url(#girlSkinShade)"
      opacity="0.4"
    />
    <!-- destellos suaves -->
    <path
      d="M86 192c-6 18-8 38-4 60 6 34 28 58 56 58 20 0 38-12 48-32"
      stroke="url(#girlHighlight)"
      stroke-width="10"
      stroke-linecap="round"
      opacity="0.5"
    />
    <path
      d="M72 214c-4 16-4 32 2 48 8 28 22 44 32 44"
      stroke="url(#girlHighlight)"
      stroke-width="8"
      stroke-linecap="round"
      opacity="0.45"
    />
  </g>
</svg>
