<svg xmlns="http://www.w3.org/2000/svg" viewBox="0 0 260 360">
  <defs>
    <linearGradient id="boySkin" x1="0" x2="0" y1="0" y2="1">
      <stop offset="0%" stop-color="#fbd1a0" />
      <stop offset="60%" stop-color="#f4b377" />
      <stop offset="100%" stop-color="#e89c5f" />
    </linearGradient>
    <linearGradient id="boySkinShade" x1="0.2" y1="0" x2="0.8" y2="1">
      <stop offset="0%" stop-color="#d8874d" stop-opacity="0.25" />
      <stop offset="100%" stop-color="#b96230" stop-opacity="0.65" />
    </linearGradient>
    <linearGradient id="boyLegs" x1="0" x2="0" y1="0" y2="1">
      <stop offset="0%" stop-color="#f6b77d" />
      <stop offset="100%" stop-color="#e69d60" />
    </linearGradient>
    <linearGradient id="boyHighlight" x1="0" x2="1" y1="0" y2="1">
      <stop offset="0%" stop-color="#ffffff" stop-opacity="0.7" />
      <stop offset="100%" stop-color="#fcd7b1" stop-opacity="0" />
    </linearGradient>
  </defs>
  <g fill="none" fill-rule="evenodd">
    <!-- cuello -->
    <path
      d="M112 82c0 18-2 34-2 48 0 18 10 30 20 30s20-12 20-30c0-14-2-30-2-48z"
      fill="url(#boySkin)"
      stroke="#c9783b"
      stroke-width="4"
      stroke-linejoin="round"
    />
    <!-- brazos -->
    <path
      d="M56 118c-16 4-28 26-28 52 0 32 18 60 40 60 18 0 32-22 28-42l-12-66z"
      fill="url(#boySkin)"
      stroke="#c9783b"
      stroke-width="5"
      stroke-linecap="round"
      stroke-linejoin="round"
    />
    <path
      d="M204 118c16 4 28 26 28 52 0 32-18 60-40 60-18 0-32-22-28-42l12-66z"
      fill="url(#boySkin)"
      stroke="#c9783b"
      stroke-width="5"
      stroke-linecap="round"
      stroke-linejoin="round"
    />
    <path
      d="M60 126c-10 6-18 24-18 40 0 26 12 48 30 48 14 0 22-18 18-34z"
      fill="url(#boySkinShade)"
      opacity="0.55"
    />
    <path
      d="M200 126c10 6 18 24 18 40 0 26-12 48-30 48-14 0-22-18-18-34z"
      fill="url(#boySkinShade)"
      opacity="0.55"
    />
    <!-- torso -->
    <path
      d="M84 126c-10 46-18 84-18 118 0 48 24 82 64 82s64-34 64-82c0-34-8-72-18-118z"
      fill="url(#boySkin)"
      stroke="#c9783b"
      stroke-width="5"
      stroke-linejoin="round"
    />
    <path
      d="M92 128c-8 40-16 74-16 112 0 40 20 68 54 68s54-28 54-68c0-38-8-72-16-112z"
      fill="url(#boySkinShade)"
      opacity="0.45"
    />
    <path
      d="M92 132c16 12 34 18 38 18s22-6 38-18"
      stroke="#c9783b"
      stroke-width="6"
      stroke-linecap="round"
      opacity="0.3"
    />
    <path
      d="M108 146c10 8 22 12 28 12s18-4 28-12"
      stroke="#fbdcbb"
      stroke-width="4"
      stroke-linecap="round"
      opacity="0.6"
    />
    <!-- piernas -->
    <path
      d="M104 282c-10 40-16 74-16 106h28l12-80 12 80h28c0-32-6-66-16-106z"
      fill="url(#boyLegs)"
      stroke="#c9783b"
      stroke-width="5"
      stroke-linejoin="round"
    />
    <path
      d="M108 286c-8 34-14 64-14 94h14l10-66 10 66h14c0-30-6-60-14-94z"
      fill="url(#boySkinShade)"
      opacity="0.4"
    />
    <!-- brillos -->
    <path
      d="M90 150c-6 16-12 40-12 62 0 42 22 72 62 72 18 0 34-8 44-22"
      stroke="url(#boyHighlight)"
      stroke-width="8"
      stroke-linecap="round"
      opacity="0.6"
    />
    <path
      d="M74 206c-4 12-4 26 0 42 6 24 20 40 32 40"
      stroke="url(#boyHighlight)"
      stroke-width="6"
      stroke-linecap="round"
      opacity="0.5"
    />
  </g>
</svg>
