<svg xmlns="http://www.w3.org/2000/svg" viewBox="0 0 240 120">
  <defs>
    <linearGradient id="eyelid" x1="0" x2="0" y1="0" y2="1">
      <stop offset="0%" stop-color="#3f2a21" />
      <stop offset="100%" stop-color="#1f140f" />
    </linearGradient>
    <radialGradient id="irisBrown" cx="0.5" cy="0.45" r="0.48">
      <stop offset="0%" stop-color="#6e3c1e" />
      <stop offset="55%" stop-color="#4d2410" />
      <stop offset="100%" stop-color="#2e1206" />
    </radialGradient>
  </defs>
  <g fill="none" fill-rule="evenodd">
    <path
      d="M24 60c18-36 54-56 96-56s78 20 96 56c-18 36-54 56-96 56S42 96 24 60z"
      fill="#fdf7f2"
      stroke="#1f140f"
      stroke-width="6"
      stroke-linejoin="round"
    />
    <path
      d="M36 58c16-28 46-44 84-44s68 16 84 44c-16 28-46 44-84 44S52 86 36 58z"
      fill="#ffffff"
      opacity="0.75"
    />
    <g transform="translate(48 26)">
      <path
        d="M0 46c9-18 31-30 52-30s43 12 52 30c-9 18-31 30-52 30S9 64 0 46z"
        fill="url(#eyelid)"
        opacity="0.25"
      />
      <ellipse cx="52" cy="46" rx="28" ry="28" fill="url(#irisBrown)" />
      <ellipse cx="52" cy="46" rx="12" ry="12" fill="#070301" />
      <circle cx="44" cy="38" r="6" fill="#ffffff" opacity="0.7" />
      <circle cx="58" cy="52" r="4" fill="#f5d9c0" opacity="0.45" />
    </g>
    <g transform="translate(140 26)">
      <path
        d="M0 46c9-18 31-30 52-30s43 12 52 30c-9 18-31 30-52 30S9 64 0 46z"
        fill="url(#eyelid)"
        opacity="0.25"
      />
      <ellipse cx="52" cy="46" rx="28" ry="28" fill="url(#irisBrown)" />
      <ellipse cx="52" cy="46" rx="12" ry="12" fill="#070301" />
      <circle cx="44" cy="38" r="6" fill="#ffffff" opacity="0.7" />
      <circle cx="58" cy="52" r="4" fill="#f5d9c0" opacity="0.45" />
    </g>
    <path
      d="M48 30c18-14 44-22 72-22s54 8 72 22"
      stroke="#1f140f"
      stroke-linecap="round"
      stroke-width="10"
      opacity="0.65"
    />
    <path
      d="M48 90c18 14 44 22 72 22s54-8 72-22"
      stroke="#1f140f"
      stroke-linecap="round"
      stroke-width="8"
      opacity="0.4"
    />
  </g>
</svg>
