<svg xmlns="http://www.w3.org/2000/svg" viewBox="0 0 200 120">
  <defs>
    <linearGradient id="blueIris" x1="0" y1="0" x2="0" y2="1">
      <stop offset="0" stop-color="#5fb8ff" />
      <stop offset="1" stop-color="#1a4aa5" />
    </linearGradient>
  </defs>
  <g transform="translate(0 6)">
    <path d="M24 60c10-28 38-44 76-44s66 16 76 44c-10 28-38 44-76 44S34 88 24 60z" fill="#fefcfe" stroke="#1b2d4d" stroke-width="6" stroke-linecap="round" />
    <g transform="translate(36)">
      <ellipse cx="64" cy="60" rx="26" ry="28" fill="#fff" />
      <circle cx="64" cy="60" r="18" fill="url(#blueIris)" />
      <circle cx="64" cy="60" r="9" fill="#0f1e3a" />
      <circle cx="74" cy="52" r="6" fill="#fff" opacity="0.9" />
      <ellipse cx="52" cy="74" rx="12" ry="6" fill="#d2e7ff" opacity="0.6" />
    </g>
    <path d="M38 52c10-14 32-24 62-24s52 10 62 24" fill="none" stroke="#1b2d4d" stroke-width="6" stroke-linecap="round" />
    <path d="M38 88c10 10 32 18 62 18s52-8 62-18" fill="none" stroke="#a0b8e8" stroke-width="6" stroke-linecap="round" opacity="0.6" />
  </g>
</svg>
