<svg xmlns="http://www.w3.org/2000/svg" viewBox="0 0 240 120">
  <defs>
    <linearGradient id="eyelidHazel" x1="0" x2="0" y1="0" y2="1">
      <stop offset="0%" stop-color="#4a3324" />
      <stop offset="100%" stop-color="#24170f" />
    </linearGradient>
    <radialGradient id="irisHazel" cx="0.5" cy="0.48" r="0.48">
      <stop offset="0%" stop-color="#d7b16f" />
      <stop offset="55%" stop-color="#9c6f32" />
      <stop offset="100%" stop-color="#5b3816" />
    </radialGradient>
  </defs>
  <g fill="none" fill-rule="evenodd">
    <path
      d="M24 60c18-36 54-56 96-56s78 20 96 56c-18 36-54 56-96 56S42 96 24 60z"
      fill="#fef9f3"
      stroke="#24170f"
      stroke-width="6"
      stroke-linejoin="round"
    />
    <path
      d="M36 58c16-28 46-44 84-44s68 16 84 44c-16 28-46 44-84 44S52 86 36 58z"
      fill="#ffffff"
      opacity="0.8"
    />
    <g transform="translate(48 26)">
      <path
        d="M0 46c9-18 31-30 52-30s43 12 52 30c-9 18-31 30-52 30S9 64 0 46z"
        fill="url(#eyelidHazel)"
        opacity="0.25"
      />
      <ellipse cx="52" cy="46" rx="28" ry="28" fill="url(#irisHazel)" />
      <ellipse cx="52" cy="46" rx="12" ry="12" fill="#120903" />
      <circle cx="44" cy="38" r="6" fill="#ffffff" opacity="0.7" />
      <circle cx="60" cy="50" r="4" fill="#f8e3bf" opacity="0.4" />
    </g>
    <g transform="translate(140 26)">
      <path
        d="M0 46c9-18 31-30 52-30s43 12 52 30c-9 18-31 30-52 30S9 64 0 46z"
        fill="url(#eyelidHazel)"
        opacity="0.25"
      />
      <ellipse cx="52" cy="46" rx="28" ry="28" fill="url(#irisHazel)" />
      <ellipse cx="52" cy="46" rx="12" ry="12" fill="#120903" />
      <circle cx="44" cy="38" r="6" fill="#ffffff" opacity="0.7" />
      <circle cx="60" cy="50" r="4" fill="#f8e3bf" opacity="0.4" />
    </g>
    <path
      d="M48 30c18-14 44-22 72-22s54 8 72 22"
      stroke="#24170f"
      stroke-linecap="round"
      stroke-width="10"
      opacity="0.65"
    />
    <path
      d="M48 90c18 14 44 22 72 22s54-8 72-22"
      stroke="#24170f"
      stroke-linecap="round"
      stroke-width="8"
      opacity="0.35"
    />
  </g>
</svg>
