<svg xmlns="http://www.w3.org/2000/svg" viewBox="0 0 200 120">
  <defs>
    <radialGradient id="blueIris" cx="0.5" cy="0.45" r="0.65">
      <stop offset="0" stop-color="#97d3ff" />
      <stop offset="0.6" stop-color="#3c8be0" />
      <stop offset="1" stop-color="#0e3a78" />
    </radialGradient>
  </defs>
  <g stroke-linecap="round" stroke-linejoin="round" transform="translate(0 4)">
    <path d="M32 56c10-30 40-46 68-46s58 16 68 46c-10 30-40 46-68 46S42 86 32 56z" fill="#fffdfc" stroke="#2c2b40" stroke-width="6" />
    <path d="M48 48c14-12 32-18 52-18s38 6 52 18" fill="none" stroke="#2c2b40" stroke-width="6" />
    <g>
      <g>
        <ellipse cx="76" cy="56" rx="24" ry="26" fill="#ffffff" stroke="#2c2b40" stroke-width="4" />
        <circle cx="76" cy="56" r="16" fill="url(#blueIris)" />
        <circle cx="76" cy="56" r="8" fill="#1a2238" />
        <circle cx="82" cy="50" r="5" fill="#fff" opacity="0.9" />
      </g>
      <g>
        <ellipse cx="124" cy="56" rx="24" ry="26" fill="#ffffff" stroke="#2c2b40" stroke-width="4" />
        <circle cx="124" cy="56" r="16" fill="url(#blueIris)" />
        <circle cx="124" cy="56" r="8" fill="#1a2238" />
        <circle cx="130" cy="50" r="5" fill="#fff" opacity="0.9" />
      </g>
    </g>
    <path d="M50 86c12 10 30 16 50 16s38-6 50-16" fill="none" stroke="#91a4d8" stroke-width="6" opacity="0.6" />
  </g>
</svg>
